<?xml version="1.0" encoding="utf-8"?>
<!-- Generator: Adobe Illustrator 16.0.0, SVG Export Plug-In . SVG Version: 6.00 Build 0)  -->
<!DOCTYPE svg PUBLIC "-//W3C//DTD SVG 1.1//EN" "http://www.w3.org/Graphics/SVG/1.1/DTD/svg11.dtd">
<svg version="1.1" id="Layer_1" xmlns="http://www.w3.org/2000/svg" xmlns:xlink="http://www.w3.org/1999/xlink" x="0px" y="0px"
	 width="309px" height="36px" viewBox="0 0 309 36" enable-background="new 0 0 309 36" xml:space="preserve">
<g>
	<path fill="#FFFFFF" d="M3.557,2.552H0V0h12.296c3.944,0,6.922,0.928,9.822,3.751c2.707,2.668,4.099,6.341,4.099,10.131
		c0,3.635-1.431,7.154-3.944,9.821c-2.823,2.979-5.955,3.906-9.977,3.906H0v-2.553h3.557V2.552z M11.755,25.059
		c3.325,0,6.07-0.543,8.429-3.057c2.011-2.127,3.248-5.22,3.248-8.159c0-3.093-1.198-6.342-3.48-8.507
		c-2.436-2.319-4.795-2.784-8.082-2.784H6.34v22.507H11.755z"/>
	<path fill="#FFFFFF" d="M46.289,23.395c-1.779,3.056-4.756,4.758-8.275,4.758c-3.712,0-7.116-1.817-8.894-4.758
		c-1.005-1.662-1.701-3.596-1.624-5.838c0-2.939,0.851-4.292,1.702-5.8c1.663-2.939,5.104-4.795,8.778-4.795
		c3.673,0,6.458,1.701,8.313,4.795V7.309h5.916v2.397h-3.364v15.506h3.364v2.397h-5.916V23.395z M30.048,17.594
		c0,4.369,3.635,8.081,8.083,8.081c4.601,0,8.197-3.634,8.197-8.158c0-4.446-3.634-8.042-8.082-8.042
		C33.761,9.474,30.048,13.108,30.048,17.594z"/>
	<path fill="#FFFFFF" d="M59.014,11.446c0.928-2.823,3.596-4.021,6.496-4.137v2.397c-4.485,0.387-6.496,3.016-6.496,7.347v8.159
		h3.403v2.397H53.06v-2.397h3.402V9.706H53.06V7.309h5.955L59.014,11.446L59.014,11.446z"/>
	<path fill="#FFFFFF" d="M72.936,11.446c0.929-2.823,3.596-4.021,6.497-4.137v2.397c-4.485,0.387-6.497,3.016-6.497,7.347v8.159
		h3.403v2.397h-9.358v-2.397h3.403V9.706h-3.403V7.309h5.955V11.446z"/>
	<path fill="#FFFFFF" d="M99.348,21.925c-1.702,3.79-5.491,6.228-9.667,6.228c-5.839,0-10.595-4.68-10.595-10.48
		c0-5.761,4.563-10.71,10.441-10.71c6.033,0,10.673,4.679,10.673,10.673v0.772H81.638c0.231,4.177,3.789,7.463,7.966,7.463
		c2.938,0,5.567-1.392,7.037-3.944L99.348,21.925L99.348,21.925z M97.801,16.318c-0.58-4.138-4.176-7.038-8.313-7.038
		c-3.906,0-7.386,3.209-7.85,7.038H97.801z"/>
	<path fill="#FFFFFF" d="M107.547,10.866c1.276-2.514,4.021-3.906,6.806-3.906c2.281,0,5.685,1.237,6.999,3.906
		c0.503,1.005,1.122,2.822,1.122,5.297v9.049h3.402v2.397h-9.358v-2.397h3.403v-8.121c0-1.816-0.039-3.557-0.966-5.142
		c-1.083-1.895-3.365-2.475-5.298-2.475c-1.778,0-3.596,0.773-4.755,2.126c-1.315,1.547-1.354,3.287-1.354,5.182v8.43h3.403v2.397
		h-9.357v-2.397h3.402V9.706h-3.402V7.309h5.955v3.557H107.547z"/>
	<path fill="#FFFFFF" d="M145.37,25.059h3.557v2.551h-9.86v-2.551h3.519V2.552h-3.519V0h19.488v7.192h-2.784v-4.64H145.37v10.054
		h10.517v2.282H145.37V25.059z"/>
	<path fill="#FFFFFF" d="M179.594,21.925c-1.701,3.79-5.491,6.228-9.667,6.228c-5.839,0-10.595-4.68-10.595-10.48
		c0-5.761,4.564-10.71,10.441-10.71c6.031,0,10.672,4.679,10.672,10.673v0.772h-18.561c0.231,4.177,3.79,7.463,7.966,7.463
		c2.938,0,5.568-1.392,7.037-3.944L179.594,21.925L179.594,21.925z M178.047,16.318c-0.58-4.138-4.176-7.038-8.314-7.038
		c-3.904,0-7.385,3.209-7.849,7.038H178.047z"/>
	<path fill="#FFFFFF" d="M187.793,11.446c0.929-2.823,3.597-4.021,6.497-4.137v2.397c-4.485,0.387-6.497,3.016-6.497,7.347v8.159
		h3.403v2.397h-9.358v-2.397h3.404V9.706h-3.404V7.309h5.955V11.446z"/>
	<path fill="#FFFFFF" d="M199.24,29.812c1.238,2.514,3.906,3.982,6.691,3.982c2.086,0,4.213-0.966,5.606-2.475
		c1.737-1.817,2.088-3.559,2.088-5.993v-2.166c-1.587,3.133-4.681,4.989-8.276,4.989c-2.899,0-7.229-1.741-8.932-4.989
		c-0.696-1.313-1.509-3.363-1.509-5.646c0-2.436,0.812-4.562,1.74-5.877c2.049-2.9,5.335-4.679,8.855-4.679
		c3.479,0,6.612,1.817,8.121,4.679V7.309h5.954v2.397h-3.402v15.12c0,3.094-0.349,5.451-2.513,7.812
		c-2.053,2.241-4.911,3.362-7.889,3.362c-4.023,0-8.123-2.164-9.476-6.187h2.94V29.812z M213.818,17.517
		c0-4.485-3.635-8.197-8.158-8.197s-8.197,3.751-8.197,8.274c0,4.485,3.75,8.159,8.236,8.159
		C210.223,25.753,213.818,22.002,213.818,17.517z"/>
	<path fill="#FFFFFF" d="M238.415,24.207c-1.313,2.475-3.867,3.943-6.769,3.943c-2.979,0-5.684-1.895-6.92-3.943
		c-0.658-1.083-1.045-2.591-1.045-4.988V9.706h-3.402V7.309h5.953v10.943c0,1.895,0.039,3.711,1.276,5.335
		c1.198,1.587,2.861,2.321,4.873,2.166c2.009-0.153,3.558-1.005,4.562-2.203c1.393-1.664,1.471-3.132,1.471-5.221V9.706h-3.402
		V7.309h5.954v17.903h3.44v2.397h-5.992L238.415,24.207L238.415,24.207z"/>
	<path fill="#FFFFFF" d="M256.824,12.451c-0.039-1.044-0.542-1.895-1.314-2.475c-0.773-0.58-1.779-0.928-2.861-0.928
		c-2.051,0-3.981,1.238-3.981,3.441c0,2.552,2.437,3.171,4.483,3.596c1.586,0.31,3.211,0.657,4.603,1.508
		c1.625,0.929,2.515,2.591,2.515,4.447c0,1.315-0.426,2.243-0.89,3.133c-0.968,1.854-3.56,2.978-5.918,2.978
		c-2.437,0-4.407-0.89-5.644-2.978v2.437h-2.09v-5.801h2.09c0.229,2.476,2.436,4.293,5.181,4.293c2.243,0,4.407-1.51,4.407-3.867
		c0-2.784-2.396-3.286-4.641-3.751c-1.586-0.348-3.172-0.657-4.562-1.508c-1.508-0.967-2.396-2.513-2.396-4.292
		c0-1.392,0.271-2.475,1.045-3.48c1.197-1.547,3.479-2.243,5.375-2.243c1.896,0,3.596,0.657,4.602,2.243V7.309h2.087v5.143
		L256.824,12.451L256.824,12.451z"/>
	<path fill="#FFFFFF" d="M261.428,17.594c0-5.916,4.795-10.633,10.711-10.633c5.764,0,10.557,4.718,10.557,10.44
		c0,5.917-4.678,10.751-10.633,10.751C266.184,28.15,261.428,23.395,261.428,17.594z M280.145,17.556
		c0-4.408-3.559-8.082-8.043-8.082c-4.485,0-8.121,3.596-8.121,8.042c0,4.408,3.559,8.121,8.082,8.121
		C276.547,25.639,280.145,22.002,280.145,17.556z"/>
	<path fill="#FFFFFF" d="M289.891,10.866c1.276-2.514,4.022-3.906,6.807-3.906c2.28,0,5.685,1.237,6.999,3.906
		c0.503,1.005,1.121,2.822,1.121,5.297v9.049h3.402v2.397h-9.357v-2.397h3.402v-8.121c0-1.816-0.039-3.557-0.966-5.142
		c-1.083-1.895-3.365-2.475-5.298-2.475c-1.78,0-3.599,0.773-4.757,2.126c-1.314,1.547-1.354,3.287-1.354,5.182v8.43h3.401v2.397
		h-9.356v-2.397h3.402V9.706h-3.402V7.309h5.955V10.866L289.891,10.866z"/>
</g>
</svg>
