<?xml version="1.0" encoding="utf-8"?>
<!-- Generator: Adobe Illustrator 16.0.0, SVG Export Plug-In . SVG Version: 6.00 Build 0)  -->
<!DOCTYPE svg PUBLIC "-//W3C//DTD SVG 1.1//EN" "http://www.w3.org/Graphics/SVG/1.1/DTD/svg11.dtd">
<svg version="1.1" id="Layer_1" xmlns="http://www.w3.org/2000/svg" xmlns:xlink="http://www.w3.org/1999/xlink" x="0px" y="0px"
	 width="72px" height="96px" viewBox="0 0 72 96" enable-background="new 0 0 72 96" xml:space="preserve">
<g>
	<path fill="#909090" d="M70,2v92H2V2H70 M72,0H0v96h72V0L72,0z"/>
</g>
<path fill="#909090" d="M12,32C12,18.728,22.745,7.971,36,7.971c13.253,0,24,10.757,24,24.029c0,13.271-10.746,24.029-24,24.029
	C22.745,56.029,12,45.271,12,32z M35.513,40.219c-2.359,0.002-4.211-0.161-5.544-0.5c-1.465-0.371-2.477-1.183-3.032-2.437
	c-0.556-1.253-0.818-3.182-0.791-5.784c0.012-1.402,0.097-2.762,0.253-4.078c0.158-1.315,0.314-2.402,0.472-3.26l0.166-0.853
	c0.004-0.024,0.005-0.05,0.005-0.076c0-0.242-0.175-0.442-0.404-0.48l-3.102-0.479c-0.025-0.005-0.051-0.007-0.078-0.007
	c-0.23,0-0.424,0.16-0.475,0.375c-0.052,0.2-0.083,0.348-0.177,0.819c-0.179,0.911-0.341,1.799-0.522,3.08
	c-0.18,1.28-0.297,2.697-0.35,4.247c0,0-0.075,0.345,0,2.973c0.075,2.627,0.527,4.725,1.355,6.294
	c0.827,1.569,2.232,2.7,4.211,3.389c1.98,0.689,4.736,1.027,8.269,1.012h0.459c3.532,0.016,6.288-0.323,8.27-1.012
	c1.98-0.688,3.383-1.817,4.21-3.389c0.829-1.569,1.281-3.667,1.355-6.294c0.074-2.627,0-2.973,0-2.973
	c-0.053-1.55-0.168-2.967-0.35-4.247c-0.183-1.281-0.343-2.169-0.523-3.08c-0.092-0.472-0.123-0.619-0.176-0.819
	c-0.051-0.215-0.244-0.375-0.475-0.375c-0.025,0-0.051,0.001-0.078,0.007l-3.1,0.479c-0.23,0.039-0.406,0.239-0.406,0.48
	c0,0.025,0.003,0.052,0.007,0.076l0.165,0.853c0.157,0.857,0.314,1.944,0.473,3.26c0.157,1.317,0.24,2.676,0.252,4.078
	c0.029,2.604-0.234,4.53-0.789,5.784c-0.557,1.254-1.566,2.065-3.031,2.437c-1.333,0.339-3.186,0.503-5.545,0.5H35.513z"/>
<rect y="64" fill="#909090" width="72" height="32"/>
<g>
	<path fill="#FFFFFF" d="M18.666,69c0.979,0,1.54,0.187,1.937,0.352v1.178c-0.628-0.254-1.111-0.375-1.859-0.375
		c-1.573,0-2.212,1.067-2.212,3.103c0,2.036,0.639,3.103,2.212,3.103c0.748,0,1.231-0.121,1.859-0.374v1.178
		c-0.396,0.165-0.957,0.352-1.937,0.352c-2.442,0-3.399-1.551-3.399-4.258C15.267,70.551,16.224,69,18.666,69z"/>
	<path fill="#FFFFFF" d="M24.056,71.75c1.937,0,2.245,1.276,2.245,2.794c0,0.188-0.012,0.363-0.022,0.539h-3.422
		c0.022,0.825,0.319,1.364,1.441,1.364c0.693,0,1.266-0.121,1.749-0.33v1.057c-0.627,0.264-1.342,0.341-1.936,0.341
		c-1.838,0-2.498-1.1-2.498-2.882C21.613,72.861,22.263,71.75,24.056,71.75z M22.856,74.226h2.201c0-0.748-0.045-1.408-1.002-1.408
		C23.153,72.817,22.9,73.4,22.856,74.226z"/>
	<path fill="#FFFFFF" d="M30.623,72.872c-0.132-0.044-0.353-0.065-0.605-0.065c-0.648,0-1.133,0.153-1.408,0.329v4.247h-1.231
		v-5.501h0.726l0.198,0.44c0.407-0.33,1.023-0.572,1.738-0.572c0.23,0,0.429,0.033,0.583,0.066V72.872z"/>
	<path fill="#FFFFFF" d="M34.562,77.438c-0.188,0.044-0.495,0.077-0.683,0.077c-1.221,0-1.936-0.528-1.936-1.716v-2.872h-1.002
		v-0.759l1.002-0.286v-1.309l1.231-0.353v1.661h1.552v1.045h-1.552v2.729c0,0.551,0.275,0.814,0.902,0.814
		c0.188,0,0.353-0.022,0.484-0.044V77.438z"/>
	<path fill="#FFFFFF" d="M36.31,69.45c0.44,0,0.804,0.363,0.804,0.804c0,0.439-0.363,0.803-0.804,0.803
		c-0.439,0-0.803-0.363-0.803-0.803C35.507,69.813,35.87,69.45,36.31,69.45z M35.693,76.029v-4.147h1.232v4.137
		c0,0.308,0.11,0.418,0.462,0.418v1.001c0,0-0.109,0.022-0.242,0.022C36.145,77.46,35.693,76.976,35.693,76.029z"/>
	<path fill="#FFFFFF" d="M42.007,70.177c-0.197-0.066-0.429-0.11-0.813-0.11c-0.55,0-0.99,0.209-0.99,0.837v0.979h1.551v1.045
		h-1.551v4.456h-1.232v-4.456H37.97v-0.759l1.001-0.286v-1.089c0-1.178,0.66-1.793,2.135-1.793c0.362,0,0.692,0.055,0.901,0.132
		V70.177z"/>
	<path fill="#FFFFFF" d="M43.338,69.45c0.44,0,0.804,0.363,0.804,0.804c0,0.439-0.363,0.803-0.804,0.803
		c-0.439,0-0.803-0.363-0.803-0.803C42.535,69.813,42.898,69.45,43.338,69.45z M42.722,76.029v-4.147h1.232v4.137
		c0,0.308,0.11,0.418,0.462,0.418v1.001c0,0-0.109,0.022-0.242,0.022C43.173,77.46,42.722,76.976,42.722,76.029z"/>
	<path fill="#FFFFFF" d="M47.728,71.75c1.937,0,2.244,1.276,2.244,2.794c0,0.188-0.011,0.363-0.021,0.539h-3.422
		c0.021,0.825,0.319,1.364,1.441,1.364c0.692,0,1.265-0.121,1.749-0.33v1.057c-0.627,0.264-1.342,0.341-1.937,0.341
		c-1.837,0-2.497-1.1-2.497-2.882C45.285,72.861,45.935,71.75,47.728,71.75z M46.528,74.226h2.2c0-0.748-0.044-1.408-1.001-1.408
		C46.825,72.817,46.572,73.4,46.528,74.226z"/>
	<path fill="#FFFFFF" d="M54.569,72.179v-3.047h1.231v8.251h-0.726l-0.198-0.44c-0.484,0.353-1.045,0.572-1.782,0.572
		c-1.606,0-2.2-1.078-2.2-2.882c0-1.794,0.594-2.883,2.2-2.883C53.645,71.75,54.173,71.926,54.569,72.179z M52.138,74.633
		c0,1.022,0.165,1.837,1.243,1.837c0.583,0,0.968-0.198,1.188-0.319v-3.036c-0.221-0.121-0.605-0.319-1.188-0.319
		C52.303,72.795,52.138,73.62,52.138,74.633z"/>
	<path fill="#FFFFFF" d="M8.232,91.383H7v-8.251h2.651c2.123,0,2.86,1.232,2.86,2.585c0,1.354-0.737,2.574-2.86,2.574H8.232V91.383z
		 M8.232,87.169h1.474c1.232,0,1.464-0.836,1.464-1.452s-0.231-1.452-1.464-1.452H8.232V87.169z"/>
	<path fill="#FFFFFF" d="M16.34,86.872c-0.132-0.044-0.353-0.065-0.605-0.065c-0.649,0-1.133,0.153-1.408,0.329v4.247h-1.232v-5.501
		h0.727l0.198,0.44c0.407-0.33,1.022-0.572,1.738-0.572c0.23,0,0.429,0.033,0.583,0.066V86.872z"/>
	<path fill="#FFFFFF" d="M16.966,88.633c0-1.694,0.484-2.883,2.442-2.883s2.442,1.188,2.442,2.883c0,1.693-0.484,2.882-2.442,2.882
		S16.966,90.326,16.966,88.633z M20.607,88.633c0-1.178-0.154-1.849-1.199-1.849s-1.199,0.671-1.199,1.849
		c0,1.177,0.154,1.848,1.199,1.848S20.607,89.81,20.607,88.633z"/>
	<path fill="#FFFFFF" d="M26.503,84.177c-0.197-0.066-0.429-0.11-0.813-0.11c-0.55,0-0.99,0.209-0.99,0.837v0.979h1.551v1.045
		h-1.551v4.456h-1.232v-4.456h-1.001v-0.759l1.001-0.286v-1.089c0-1.178,0.66-1.793,2.135-1.793c0.362,0,0.692,0.055,0.901,0.132
		V84.177z"/>
	<path fill="#FFFFFF" d="M29.177,85.75c1.937,0,2.244,1.276,2.244,2.794c0,0.188-0.011,0.363-0.021,0.539h-3.422
		c0.021,0.825,0.319,1.364,1.441,1.364c0.692,0,1.265-0.121,1.749-0.33v1.057c-0.627,0.264-1.342,0.341-1.937,0.341
		c-1.837,0-2.497-1.1-2.497-2.882C26.734,86.861,27.384,85.75,29.177,85.75z M27.978,88.226h2.2c0-0.748-0.044-1.408-1.001-1.408
		C28.274,86.817,28.021,87.4,27.978,88.226z"/>
	<path fill="#FFFFFF" d="M34.467,88.082c1.65,0.144,2.079,0.639,2.079,1.661c0,0.946-0.583,1.771-2.343,1.771
		c-0.76,0-1.441-0.143-1.815-0.297v-1.056c0.363,0.132,0.946,0.308,1.64,0.308c0.88,0,1.309-0.198,1.309-0.683
		c0-0.406-0.176-0.615-0.913-0.682c-1.661-0.143-2.068-0.66-2.068-1.606s0.616-1.749,2.233-1.749c0.748,0,1.276,0.088,1.705,0.275
		v1.066c-0.473-0.176-0.99-0.308-1.683-0.308c-0.649,0-1.057,0.187-1.057,0.682C33.554,87.852,33.752,88.017,34.467,88.082z"/>
	<path fill="#FFFFFF" d="M39.582,88.082c1.65,0.144,2.079,0.639,2.079,1.661c0,0.946-0.583,1.771-2.343,1.771
		c-0.76,0-1.441-0.143-1.815-0.297v-1.056c0.363,0.132,0.946,0.308,1.64,0.308c0.88,0,1.309-0.198,1.309-0.683
		c0-0.406-0.176-0.615-0.913-0.682c-1.661-0.143-2.068-0.66-2.068-1.606s0.616-1.749,2.233-1.749c0.748,0,1.276,0.088,1.705,0.275
		v1.066c-0.473-0.176-0.99-0.308-1.683-0.308c-0.649,0-1.057,0.187-1.057,0.682C38.669,87.852,38.867,88.017,39.582,88.082z"/>
	<path fill="#FFFFFF" d="M43.454,83.45c0.44,0,0.804,0.363,0.804,0.804c0,0.439-0.363,0.803-0.804,0.803
		c-0.439,0-0.803-0.363-0.803-0.803C42.651,83.813,43.015,83.45,43.454,83.45z M42.838,90.029v-4.147h1.232v4.137
		c0,0.308,0.11,0.418,0.462,0.418v1.001c0,0-0.109,0.022-0.242,0.022C43.289,91.46,42.838,90.976,42.838,90.029z"/>
	<path fill="#FFFFFF" d="M45.4,88.633c0-1.694,0.484-2.883,2.442-2.883s2.442,1.188,2.442,2.883c0,1.693-0.484,2.882-2.442,2.882
		S45.4,90.326,45.4,88.633z M49.042,88.633c0-1.178-0.154-1.849-1.199-1.849s-1.199,0.671-1.199,1.849
		c0,1.177,0.154,1.848,1.199,1.848S49.042,89.81,49.042,88.633z"/>
	<path fill="#FFFFFF" d="M54.707,91.383v-3.773c0-0.562-0.286-0.814-0.869-0.814c-0.572,0-0.968,0.154-1.266,0.319v4.269h-1.231
		v-5.501h0.726l0.198,0.44c0.561-0.385,1.188-0.572,1.782-0.572c1.397,0,1.893,0.693,1.893,1.749v3.884H54.707z"/>
	<path fill="#FFFFFF" d="M59.073,86.807c-0.715,0-1.298,0.164-1.716,0.329v-1.066c0.429-0.188,1.155-0.319,1.804-0.319
		c1.805,0,2.223,0.792,2.223,1.958v3.675h-0.727l-0.197-0.44c-0.44,0.363-1.057,0.572-1.661,0.572c-1.42,0-1.893-0.88-1.893-1.76
		c0-1.188,0.77-1.694,2.013-1.794l1.232-0.099v-0.275C60.151,87.026,59.888,86.807,59.073,86.807z M58.996,88.842
		c-0.55,0.065-0.869,0.274-0.869,0.847c0,0.418,0.177,0.814,0.848,0.814c0.495,0,0.836-0.144,1.177-0.363v-1.431L58.996,88.842z"/>
	<path fill="#FFFFFF" d="M62.67,90.029v-6.897h1.232v6.887c0,0.308,0.11,0.418,0.462,0.418v1.001c0,0-0.109,0.022-0.242,0.022
		C63.121,91.46,62.67,90.976,62.67,90.029z"/>
</g>
</svg>
